<svg width="368" height="185" viewBox="0 0 368 185" fill="none" xmlns="http://www.w3.org/2000/svg">
<rect width="340" height="185" rx="5" fill="url(#paint0_linear_13_37)"/>
<path d="M60.0671 74.5127V78.2236H36.8005V74.9766L48.446 62.0127C49.8783 60.4176 50.9851 59.0667 51.7664 57.96C52.5639 56.8369 53.1173 55.8359 53.4265 54.957C53.752 54.0618 53.9148 53.1504 53.9148 52.2227C53.9148 51.0508 53.6707 49.9928 53.1824 49.0488C52.7104 48.0885 52.0105 47.3236 51.0828 46.7539C50.155 46.1842 49.032 45.8994 47.7136 45.8994C46.1348 45.8994 44.8165 46.2087 43.7585 46.8271C42.7169 47.4294 41.9356 48.2757 41.4148 49.3662C40.894 50.4567 40.6335 51.71 40.6335 53.126H36.1169C36.1169 51.124 36.5564 49.293 37.4353 47.6328C38.3142 45.9727 39.6163 44.6543 41.3416 43.6777C43.0668 42.6849 45.1908 42.1885 47.7136 42.1885C49.9597 42.1885 51.8803 42.5872 53.4753 43.3848C55.0704 44.166 56.2911 45.2728 57.1375 46.7051C58.0001 48.1211 58.4314 49.7812 58.4314 51.6855C58.4314 52.7272 58.2524 53.7852 57.8943 54.8594C57.5525 55.9173 57.0723 56.9753 56.4539 58.0332C55.8516 59.0911 55.1436 60.1328 54.3298 61.1582C53.5323 62.1836 52.6778 63.1927 51.7664 64.1855L42.2449 74.5127H60.0671ZM83.4851 42.6279H83.8757V46.4609H83.4851C81.0925 46.4609 79.0906 46.8516 77.4792 47.6328C75.8679 48.3978 74.5903 49.4313 73.6462 50.7334C72.7022 52.0192 72.0186 53.4678 71.5955 55.0791C71.1886 56.6904 70.9851 58.3262 70.9851 59.9863V65.2109C70.9851 66.7897 71.1723 68.1895 71.5466 69.4102C71.921 70.6146 72.4337 71.6318 73.0847 72.4619C73.7358 73.292 74.4682 73.9186 75.282 74.3418C76.1121 74.765 76.9747 74.9766 77.8699 74.9766C78.9115 74.9766 79.8393 74.7812 80.6531 74.3906C81.4669 73.9837 82.1505 73.4222 82.7039 72.7061C83.2735 71.9736 83.7048 71.111 83.9978 70.1182C84.2908 69.1253 84.4373 68.0348 84.4373 66.8467C84.4373 65.7887 84.307 64.7715 84.0466 63.7949C83.7862 62.8021 83.3875 61.9232 82.8503 61.1582C82.3132 60.377 81.6378 59.7666 80.824 59.3271C80.0264 58.8714 79.0743 58.6436 77.9675 58.6436C76.7143 58.6436 75.5424 58.9528 74.4519 59.5713C73.3777 60.1735 72.4906 60.971 71.7908 61.9639C71.1072 62.9404 70.7166 64.0065 70.6189 65.1621L68.2263 65.1377C68.4542 63.3148 68.8774 61.7604 69.4958 60.4746C70.1306 59.1725 70.9119 58.1146 71.8396 57.3008C72.7836 56.4707 73.8334 55.8685 74.989 55.4941C76.1609 55.1035 77.3979 54.9082 78.7 54.9082C80.474 54.9082 82.004 55.2419 83.2898 55.9092C84.5756 56.5765 85.6335 57.4717 86.4636 58.5947C87.2937 59.7015 87.9041 60.9548 88.2947 62.3545C88.7016 63.738 88.905 65.1621 88.905 66.627C88.905 68.3034 88.669 69.874 88.197 71.3389C87.725 72.8037 87.017 74.0895 86.073 75.1963C85.1453 76.3031 83.9978 77.1657 82.6306 77.7842C81.2634 78.4027 79.6765 78.7119 77.8699 78.7119C75.9493 78.7119 74.2729 78.3213 72.8406 77.54C71.4083 76.7425 70.2201 75.6846 69.2761 74.3662C68.3321 73.0479 67.6241 71.583 67.1521 69.9717C66.6801 68.3604 66.4441 66.7246 66.4441 65.0645V62.9404C66.4441 60.4339 66.6964 57.9762 67.2009 55.5674C67.7055 53.1585 68.5763 50.9775 69.8132 49.0244C71.0665 47.0713 72.7999 45.5169 75.0134 44.3613C77.227 43.2057 80.0509 42.6279 83.4851 42.6279Z" fill="black"/>
<path d="M84.8397 31.449C83.8766 31.449 83.0563 31.187 82.3787 30.6628C81.7012 30.1344 81.1834 29.3695 80.8255 28.3681C80.4675 27.3624 80.2885 26.1479 80.2885 24.7246C80.2885 23.3098 80.4675 22.1017 80.8255 21.1003C81.1877 20.0946 81.7076 19.3276 82.3851 18.7992C83.0669 18.2665 83.8851 18.0002 84.8397 18.0002C85.7942 18.0002 86.6103 18.2665 87.2878 18.7992C87.9696 19.3276 88.4895 20.0946 88.8475 21.1003C89.2097 22.1017 89.3908 23.3098 89.3908 24.7246C89.3908 26.1479 89.2118 27.3624 88.8539 28.3681C88.4959 29.3695 87.9782 30.1344 87.3006 30.6628C86.623 31.187 85.8027 31.449 84.8397 31.449ZM84.8397 30.0428C85.7942 30.0428 86.5357 29.5825 87.0641 28.6621C87.5925 27.7416 87.8567 26.4291 87.8567 24.7246C87.8567 23.5911 87.7353 22.6259 87.4924 21.829C87.2537 21.0321 86.9086 20.4249 86.4568 20.0073C86.0094 19.5897 85.4703 19.3808 84.8397 19.3808C83.8936 19.3808 83.1543 19.8475 82.6216 20.7807C82.089 21.7097 81.8226 23.0243 81.8226 24.7246C81.8226 25.8581 81.9419 26.8212 82.1806 27.6138C82.4192 28.4064 82.7622 29.0094 83.2097 29.4227C83.6614 29.8361 84.2047 30.0428 84.8397 30.0428Z" fill="black"/>
<path d="M109.831 36.2595H107.806C107.686 35.6769 107.476 35.165 107.177 34.724C106.883 34.2829 106.523 33.9127 106.099 33.6132C105.679 33.3083 105.214 33.0796 104.702 32.9271C104.19 32.7746 103.657 32.6984 103.101 32.6984C102.088 32.6984 101.171 32.9543 100.349 33.4662C99.532 33.978 98.8813 34.7321 98.3967 35.7286C97.9175 36.725 97.6779 37.9475 97.6779 39.3959C97.6779 40.8442 97.9175 42.0667 98.3967 43.0631C98.8813 44.0596 99.532 44.8137 100.349 45.3255C101.171 45.8374 102.088 46.0933 103.101 46.0933C103.657 46.0933 104.19 46.0171 104.702 45.8646C105.214 45.7121 105.679 45.4862 106.099 45.1867C106.523 44.8818 106.883 44.5088 107.177 44.0677C107.476 43.6212 107.686 43.1094 107.806 42.5322H109.831C109.679 43.3871 109.401 44.1521 108.998 44.8273C108.595 45.5025 108.094 46.077 107.495 46.5507C106.896 47.019 106.224 47.3756 105.478 47.6206C104.737 47.8657 103.945 47.9882 103.101 47.9882C101.675 47.9882 100.406 47.6397 99.2951 46.9427C98.1843 46.2458 97.3104 45.2548 96.6733 43.9697C96.0362 42.6847 95.7177 41.1601 95.7177 39.3959C95.7177 37.6316 96.0362 36.107 96.6733 34.822C97.3104 33.537 98.1843 32.5459 99.2951 31.849C100.406 31.152 101.675 30.8035 103.101 30.8035C103.945 30.8035 104.737 30.926 105.478 31.1711C106.224 31.4161 106.896 31.7755 107.495 32.2492C108.094 32.7175 108.595 33.2892 108.998 33.9644C109.401 34.6341 109.679 35.3992 109.831 36.2595Z" fill="black"/>
<path d="M42.7209 95.8969V113.768H40.4626V98.7167L35.9094 100.377V98.3383L42.3669 95.8969H42.7209ZM57.2961 110.265C57.2961 109.939 57.2229 109.638 57.0764 109.361C56.9381 109.076 56.6492 108.82 56.2097 108.592C55.7784 108.356 55.1274 108.153 54.2566 107.982C53.5242 107.827 52.8609 107.644 52.2668 107.432C51.6809 107.221 51.1804 106.965 50.7654 106.663C50.3585 106.362 50.0452 106.008 49.8254 105.601C49.6057 105.195 49.4958 104.718 49.4958 104.173C49.4958 103.652 49.6098 103.16 49.8376 102.696C50.0736 102.232 50.4032 101.821 50.8264 101.463C51.2577 101.105 51.7745 100.824 52.3767 100.621C52.9789 100.418 53.6503 100.316 54.3909 100.316C55.4488 100.316 56.3521 100.503 57.1008 100.877C57.8495 101.252 58.4233 101.752 58.822 102.379C59.2208 102.997 59.4202 103.685 59.4202 104.442H57.1619C57.1619 104.076 57.052 103.722 56.8323 103.38C56.6207 103.03 56.3074 102.741 55.8923 102.513C55.4854 102.285 54.9849 102.171 54.3909 102.171C53.7642 102.171 53.2556 102.269 52.865 102.464C52.4825 102.651 52.2017 102.891 52.0227 103.184C51.8518 103.477 51.7664 103.787 51.7664 104.112C51.7664 104.356 51.807 104.576 51.8884 104.771C51.9779 104.959 52.1326 105.134 52.3523 105.296C52.572 105.451 52.8813 105.597 53.28 105.736C53.6788 105.874 54.1874 106.012 54.8059 106.151C55.8883 106.395 56.7794 106.688 57.4792 107.03C58.1791 107.371 58.7 107.791 59.0417 108.287C59.3835 108.783 59.5544 109.386 59.5544 110.094C59.5544 110.671 59.4324 111.2 59.1882 111.681C58.9522 112.161 58.6064 112.576 58.1506 112.926C57.703 113.267 57.1659 113.536 56.5393 113.731C55.9208 113.918 55.225 114.012 54.4519 114.012C53.2882 114.012 52.3035 113.805 51.4978 113.39C50.6921 112.974 50.0818 112.437 49.6667 111.778C49.2517 111.119 49.0442 110.423 49.0442 109.691H51.3147C51.3472 110.309 51.5263 110.802 51.8518 111.168C52.1773 111.526 52.5761 111.782 53.0481 111.937C53.5201 112.083 53.988 112.157 54.4519 112.157C55.0704 112.157 55.5872 112.075 56.0022 111.912C56.4254 111.75 56.7468 111.526 56.9666 111.241C57.1863 110.956 57.2961 110.631 57.2961 110.265ZM68.0505 100.56V102.293H60.9094V100.56H68.0505ZM63.3264 97.3495H65.5847V110.496C65.5847 110.944 65.6539 111.282 65.7922 111.51C65.9306 111.738 66.1096 111.888 66.3293 111.961C66.5491 112.035 66.7851 112.071 67.0374 112.071C67.2245 112.071 67.4198 112.055 67.6233 112.022C67.8349 111.982 67.9936 111.949 68.0994 111.925L68.1116 113.768C67.9325 113.825 67.6965 113.878 67.4036 113.927C67.1187 113.984 66.7729 114.012 66.366 114.012C65.8126 114.012 65.304 113.902 64.8401 113.682C64.3762 113.463 64.0059 113.097 63.7292 112.584C63.4607 112.063 63.3264 111.363 63.3264 110.484V97.3495ZM77.9871 95.9945H80.2698L86.0925 110.484L91.9031 95.9945H94.198L86.9714 113.768H85.1892L77.9871 95.9945ZM77.2424 95.9945H79.2566L79.5862 106.834V113.768H77.2424V95.9945ZM92.9163 95.9945H94.9304V113.768H92.5867V106.834L92.9163 95.9945ZM106.515 111.51V104.71C106.515 104.189 106.409 103.738 106.198 103.355C105.994 102.965 105.685 102.664 105.27 102.452C104.855 102.24 104.342 102.135 103.732 102.135C103.162 102.135 102.662 102.232 102.23 102.428C101.807 102.623 101.473 102.879 101.229 103.197C100.993 103.514 100.875 103.856 100.875 104.222H98.6169C98.6169 103.75 98.739 103.282 98.9832 102.818C99.2273 102.354 99.5772 101.935 100.033 101.561C100.497 101.178 101.05 100.877 101.693 100.658C102.344 100.43 103.068 100.316 103.866 100.316C104.826 100.316 105.673 100.479 106.405 100.804C107.146 101.13 107.723 101.622 108.138 102.281C108.562 102.932 108.773 103.75 108.773 104.735V110.887C108.773 111.327 108.81 111.794 108.883 112.291C108.964 112.787 109.082 113.215 109.237 113.573V113.768H106.881C106.767 113.508 106.678 113.162 106.613 112.73C106.547 112.291 106.515 111.884 106.515 111.51ZM106.906 105.76L106.93 107.347H104.647C104.004 107.347 103.431 107.4 102.926 107.506C102.421 107.603 101.998 107.754 101.656 107.957C101.315 108.161 101.054 108.417 100.875 108.726C100.696 109.028 100.607 109.382 100.607 109.788C100.607 110.203 100.7 110.582 100.887 110.924C101.075 111.266 101.355 111.538 101.73 111.742C102.112 111.937 102.58 112.035 103.134 112.035C103.825 112.035 104.436 111.888 104.965 111.595C105.494 111.302 105.913 110.944 106.222 110.521C106.539 110.098 106.71 109.687 106.735 109.288L107.699 110.374C107.642 110.716 107.487 111.095 107.235 111.51C106.983 111.925 106.645 112.323 106.222 112.706C105.807 113.08 105.31 113.394 104.733 113.646C104.163 113.89 103.52 114.012 102.804 114.012C101.909 114.012 101.123 113.837 100.448 113.487C99.7807 113.137 99.2598 112.669 98.8855 112.083C98.5193 111.489 98.3362 110.826 98.3362 110.094C98.3362 109.386 98.4745 108.763 98.7512 108.226C99.0279 107.681 99.4267 107.229 99.9475 106.871C100.468 106.505 101.095 106.228 101.827 106.041C102.56 105.854 103.378 105.76 104.281 105.76H106.906ZM115.841 112.401L119.515 100.56H121.932L116.635 115.807C116.512 116.132 116.35 116.482 116.146 116.856C115.951 117.239 115.699 117.601 115.389 117.943C115.08 118.285 114.706 118.561 114.266 118.773C113.835 118.993 113.318 119.102 112.716 119.102C112.537 119.102 112.309 119.078 112.032 119.029C111.756 118.98 111.56 118.94 111.447 118.907L111.434 117.076C111.499 117.084 111.601 117.092 111.74 117.1C111.886 117.117 111.988 117.125 112.045 117.125C112.557 117.125 112.993 117.056 113.351 116.917C113.709 116.787 114.01 116.563 114.254 116.246C114.506 115.937 114.722 115.509 114.901 114.964L115.841 112.401ZM113.143 100.56L116.573 110.814L117.159 113.194L115.536 114.024L110.677 100.56H113.143ZM141.573 111.912V113.768H129.94V112.144L135.763 105.662C136.479 104.865 137.032 104.189 137.423 103.636C137.822 103.075 138.099 102.574 138.253 102.135C138.416 101.687 138.497 101.231 138.497 100.767C138.497 100.182 138.375 99.6525 138.131 99.1805C137.895 98.7004 137.545 98.3179 137.081 98.0331C136.617 97.7483 136.056 97.6058 135.397 97.6058C134.607 97.6058 133.948 97.7605 133.419 98.0697C132.898 98.3708 132.508 98.794 132.247 99.3392C131.987 99.8845 131.857 100.511 131.857 101.219H129.598C129.598 100.218 129.818 99.3026 130.258 98.4725C130.697 97.6425 131.348 96.9833 132.211 96.495C133.073 95.9986 134.135 95.7504 135.397 95.7504C136.52 95.7504 137.48 95.9497 138.278 96.3485C139.075 96.7391 139.685 97.2925 140.109 98.0087C140.54 98.7167 140.756 99.5468 140.756 100.499C140.756 101.02 140.666 101.549 140.487 102.086C140.316 102.615 140.076 103.144 139.767 103.673C139.466 104.202 139.112 104.723 138.705 105.235C138.306 105.748 137.879 106.252 137.423 106.749L132.662 111.912H141.573ZM147.286 103.77H148.898C149.687 103.77 150.338 103.64 150.851 103.38C151.372 103.111 151.758 102.749 152.01 102.293C152.271 101.829 152.401 101.309 152.401 100.731C152.401 100.047 152.287 99.4735 152.059 99.0096C151.831 98.5458 151.49 98.1958 151.034 97.9598C150.578 97.7238 150 97.6058 149.301 97.6058C148.666 97.6058 148.104 97.732 147.616 97.9843C147.136 98.2284 146.757 98.5783 146.481 99.0341C146.212 99.4898 146.078 100.027 146.078 100.645H143.82C143.82 99.7421 144.047 98.9201 144.503 98.1796C144.959 97.439 145.598 96.849 146.42 96.4095C147.25 95.9701 148.21 95.7504 149.301 95.7504C150.375 95.7504 151.315 95.9416 152.12 96.3241C152.926 96.6984 153.553 97.26 154 98.0087C154.448 98.7492 154.672 99.6729 154.672 100.78C154.672 101.227 154.566 101.707 154.354 102.22C154.151 102.725 153.829 103.197 153.39 103.636C152.959 104.076 152.397 104.438 151.705 104.723C151.014 104.999 150.184 105.138 149.215 105.138H147.286V103.77ZM147.286 105.626V104.271H149.215C150.346 104.271 151.282 104.405 152.023 104.674C152.763 104.942 153.345 105.3 153.768 105.748C154.2 106.196 154.501 106.688 154.672 107.225C154.851 107.754 154.94 108.283 154.94 108.812C154.94 109.642 154.798 110.378 154.513 111.021C154.236 111.664 153.842 112.21 153.329 112.657C152.824 113.105 152.23 113.442 151.547 113.67C150.863 113.898 150.118 114.012 149.313 114.012C148.54 114.012 147.811 113.902 147.128 113.682C146.452 113.463 145.854 113.145 145.333 112.73C144.812 112.307 144.406 111.79 144.113 111.18C143.82 110.562 143.673 109.858 143.673 109.068H145.931C145.931 109.687 146.066 110.228 146.334 110.692C146.611 111.156 147.002 111.518 147.506 111.778C148.019 112.03 148.621 112.157 149.313 112.157C150.004 112.157 150.599 112.039 151.095 111.803C151.6 111.558 151.986 111.192 152.255 110.704C152.531 110.216 152.67 109.601 152.67 108.861C152.67 108.12 152.515 107.514 152.206 107.042C151.897 106.562 151.457 106.208 150.887 105.98C150.326 105.744 149.663 105.626 148.898 105.626H147.286Z" fill="black"/>
<path d="M88.1978 148.15V154.656C87.978 154.982 87.6281 155.348 87.1479 155.755C86.6678 156.154 86.0046 156.504 85.1582 156.805C84.32 157.098 83.2376 157.244 81.9111 157.244C80.8288 157.244 79.8319 157.057 78.9204 156.683C78.0171 156.3 77.2318 155.747 76.5645 155.022C75.9053 154.29 75.3926 153.403 75.0264 152.361C74.6683 151.312 74.4893 150.123 74.4893 148.797V147.417C74.4893 146.091 74.6439 144.907 74.9531 143.865C75.2705 142.824 75.7344 141.941 76.3447 141.216C76.9551 140.484 77.7038 139.931 78.5908 139.556C79.4779 139.174 80.4951 138.982 81.6426 138.982C83.0016 138.982 84.1369 139.218 85.0483 139.69C85.9679 140.154 86.6841 140.797 87.1968 141.619C87.7176 142.441 88.0513 143.377 88.1978 144.427H85.8418C85.736 143.784 85.5244 143.198 85.207 142.669C84.8978 142.14 84.4543 141.717 83.8765 141.399C83.2987 141.074 82.554 140.911 81.6426 140.911C80.8206 140.911 80.1086 141.062 79.5063 141.363C78.9041 141.664 78.4077 142.095 78.0171 142.657C77.6265 143.218 77.3335 143.898 77.1382 144.695C76.951 145.493 76.8574 146.392 76.8574 147.393V148.797C76.8574 149.822 76.9754 150.738 77.2114 151.543C77.4556 152.349 77.8014 153.037 78.249 153.606C78.6966 154.168 79.2297 154.595 79.8481 154.888C80.4748 155.181 81.1665 155.328 81.9233 155.328C82.7616 155.328 83.4411 155.258 83.9619 155.12C84.4827 154.974 84.8896 154.803 85.1826 154.607C85.4756 154.404 85.6994 154.213 85.854 154.034V150.054H81.7402V148.15H88.1978ZM94.3205 138.25V157H92.0622V138.25H94.3205ZM93.7834 149.896L92.8435 149.859C92.8516 148.956 92.9859 148.121 93.2463 147.356C93.5067 146.583 93.8729 145.912 94.3449 145.342C94.8169 144.773 95.3784 144.333 96.0295 144.024C96.6887 143.707 97.417 143.548 98.2146 143.548C98.8656 143.548 99.4515 143.637 99.9724 143.816C100.493 143.987 100.937 144.264 101.303 144.646C101.677 145.029 101.962 145.525 102.157 146.136C102.353 146.738 102.45 147.474 102.45 148.345V157H100.18V148.321C100.18 147.629 100.078 147.076 99.8747 146.661C99.6713 146.237 99.3742 145.932 98.9836 145.745C98.593 145.55 98.1128 145.452 97.5432 145.452C96.9816 145.452 96.4689 145.57 96.0051 145.806C95.5493 146.042 95.1547 146.368 94.821 146.783C94.4955 147.198 94.2391 147.674 94.052 148.211C93.8729 148.74 93.7834 149.301 93.7834 149.896ZM113.92 154.742V147.942C113.92 147.422 113.814 146.97 113.602 146.587C113.399 146.197 113.09 145.896 112.675 145.684C112.26 145.472 111.747 145.367 111.137 145.367C110.567 145.367 110.066 145.464 109.635 145.66C109.212 145.855 108.878 146.111 108.634 146.429C108.398 146.746 108.28 147.088 108.28 147.454H106.022C106.022 146.982 106.144 146.514 106.388 146.05C106.632 145.586 106.982 145.167 107.438 144.793C107.902 144.41 108.455 144.109 109.098 143.89C109.749 143.662 110.473 143.548 111.271 143.548C112.231 143.548 113.078 143.711 113.81 144.036C114.551 144.362 115.128 144.854 115.543 145.513C115.967 146.164 116.178 146.982 116.178 147.967V154.119C116.178 154.559 116.215 155.027 116.288 155.523C116.369 156.019 116.487 156.447 116.642 156.805V157H114.286C114.172 156.74 114.083 156.394 114.017 155.962C113.952 155.523 113.92 155.116 113.92 154.742ZM114.31 148.992L114.335 150.579H112.052C111.409 150.579 110.836 150.632 110.331 150.738C109.826 150.835 109.403 150.986 109.061 151.189C108.72 151.393 108.459 151.649 108.28 151.958C108.101 152.26 108.012 152.614 108.012 153.021C108.012 153.436 108.105 153.814 108.292 154.156C108.48 154.498 108.76 154.77 109.135 154.974C109.517 155.169 109.985 155.267 110.538 155.267C111.23 155.267 111.841 155.12 112.37 154.827C112.899 154.534 113.318 154.176 113.627 153.753C113.944 153.33 114.115 152.919 114.14 152.52L115.104 153.606C115.047 153.948 114.892 154.327 114.64 154.742C114.388 155.157 114.05 155.556 113.627 155.938C113.212 156.312 112.715 156.626 112.138 156.878C111.568 157.122 110.925 157.244 110.209 157.244C109.314 157.244 108.528 157.069 107.853 156.719C107.186 156.369 106.665 155.901 106.29 155.315C105.924 154.721 105.741 154.058 105.741 153.326C105.741 152.618 105.879 151.995 106.156 151.458C106.433 150.913 106.832 150.461 107.352 150.103C107.873 149.737 108.5 149.46 109.232 149.273C109.965 149.086 110.783 148.992 111.686 148.992H114.31ZM125.56 143.792V145.525H118.419V143.792H125.56ZM120.836 140.582H123.094V153.729C123.094 154.176 123.164 154.514 123.302 154.742C123.44 154.97 123.619 155.12 123.839 155.193C124.059 155.267 124.295 155.303 124.547 155.303C124.734 155.303 124.929 155.287 125.133 155.254C125.345 155.214 125.503 155.181 125.609 155.157L125.621 157C125.442 157.057 125.206 157.11 124.913 157.159C124.628 157.216 124.282 157.244 123.876 157.244C123.322 157.244 122.814 157.134 122.35 156.915C121.886 156.695 121.516 156.329 121.239 155.816C120.97 155.295 120.836 154.595 120.836 153.716V140.582ZM130.78 138.25V157H128.509V138.25H130.78ZM138.848 143.792L133.087 149.957L129.864 153.301L129.681 150.896L131.988 148.138L136.09 143.792H138.848ZM136.785 157L132.074 150.701L133.245 148.687L139.447 157H136.785ZM146.717 157.244C145.797 157.244 144.963 157.09 144.214 156.78C143.474 156.463 142.835 156.019 142.298 155.45C141.769 154.88 141.362 154.205 141.077 153.423C140.792 152.642 140.65 151.788 140.65 150.86V150.347C140.65 149.273 140.809 148.317 141.126 147.479C141.443 146.632 141.875 145.916 142.42 145.33C142.965 144.744 143.584 144.301 144.275 144C144.967 143.698 145.683 143.548 146.424 143.548C147.368 143.548 148.182 143.711 148.865 144.036C149.557 144.362 150.123 144.817 150.562 145.403C151.001 145.981 151.327 146.665 151.539 147.454C151.75 148.235 151.856 149.09 151.856 150.018V151.031H141.993V149.188H149.598V149.017C149.565 148.431 149.443 147.861 149.231 147.308C149.028 146.754 148.702 146.299 148.255 145.94C147.807 145.582 147.197 145.403 146.424 145.403C145.911 145.403 145.439 145.513 145.008 145.733C144.576 145.944 144.206 146.262 143.897 146.685C143.588 147.108 143.348 147.625 143.177 148.235C143.006 148.846 142.92 149.55 142.92 150.347V150.86C142.92 151.486 143.006 152.076 143.177 152.63C143.356 153.175 143.612 153.655 143.946 154.07C144.288 154.485 144.699 154.811 145.179 155.047C145.667 155.283 146.22 155.401 146.839 155.401C147.636 155.401 148.312 155.238 148.865 154.913C149.419 154.587 149.903 154.152 150.318 153.606L151.685 154.693C151.4 155.124 151.038 155.535 150.599 155.926C150.159 156.316 149.618 156.634 148.975 156.878C148.34 157.122 147.588 157.244 146.717 157.244ZM162.483 153.497C162.483 153.171 162.41 152.87 162.263 152.593C162.125 152.308 161.836 152.052 161.397 151.824C160.965 151.588 160.314 151.385 159.444 151.214C158.711 151.059 158.048 150.876 157.454 150.665C156.868 150.453 156.367 150.197 155.952 149.896C155.545 149.594 155.232 149.24 155.012 148.833C154.793 148.427 154.683 147.951 154.683 147.405C154.683 146.884 154.797 146.392 155.025 145.928C155.261 145.464 155.59 145.053 156.013 144.695C156.445 144.337 156.961 144.056 157.564 143.853C158.166 143.65 158.837 143.548 159.578 143.548C160.636 143.548 161.539 143.735 162.288 144.109C163.036 144.484 163.61 144.984 164.009 145.611C164.408 146.229 164.607 146.917 164.607 147.674H162.349C162.349 147.308 162.239 146.954 162.019 146.612C161.808 146.262 161.494 145.973 161.079 145.745C160.672 145.517 160.172 145.403 159.578 145.403C158.951 145.403 158.443 145.501 158.052 145.696C157.669 145.883 157.389 146.124 157.21 146.417C157.039 146.709 156.953 147.019 156.953 147.344C156.953 147.588 156.994 147.808 157.075 148.003C157.165 148.191 157.32 148.366 157.539 148.528C157.759 148.683 158.068 148.829 158.467 148.968C158.866 149.106 159.374 149.244 159.993 149.383C161.075 149.627 161.966 149.92 162.666 150.262C163.366 150.604 163.887 151.023 164.229 151.519C164.571 152.015 164.741 152.618 164.741 153.326C164.741 153.903 164.619 154.432 164.375 154.913C164.139 155.393 163.793 155.808 163.338 156.158C162.89 156.5 162.353 156.768 161.726 156.963C161.108 157.151 160.412 157.244 159.639 157.244C158.475 157.244 157.49 157.037 156.685 156.622C155.879 156.207 155.269 155.669 154.854 155.01C154.439 154.351 154.231 153.655 154.231 152.923H156.502C156.534 153.541 156.713 154.034 157.039 154.4C157.364 154.758 157.763 155.014 158.235 155.169C158.707 155.315 159.175 155.389 159.639 155.389C160.257 155.389 160.774 155.307 161.189 155.145C161.612 154.982 161.934 154.758 162.154 154.473C162.373 154.188 162.483 153.863 162.483 153.497ZM175.796 154.742V147.942C175.796 147.422 175.69 146.97 175.478 146.587C175.275 146.197 174.966 145.896 174.551 145.684C174.136 145.472 173.623 145.367 173.013 145.367C172.443 145.367 171.942 145.464 171.511 145.66C171.088 145.855 170.754 146.111 170.51 146.429C170.274 146.746 170.156 147.088 170.156 147.454H167.898C167.898 146.982 168.02 146.514 168.264 146.05C168.508 145.586 168.858 145.167 169.314 144.793C169.778 144.41 170.331 144.109 170.974 143.89C171.625 143.662 172.349 143.548 173.147 143.548C174.107 143.548 174.954 143.711 175.686 144.036C176.426 144.362 177.004 144.854 177.419 145.513C177.843 146.164 178.054 146.982 178.054 147.967V154.119C178.054 154.559 178.091 155.027 178.164 155.523C178.245 156.019 178.363 156.447 178.518 156.805V157H176.162C176.048 156.74 175.959 156.394 175.893 155.962C175.828 155.523 175.796 155.116 175.796 154.742ZM176.186 148.992L176.211 150.579H173.928C173.285 150.579 172.711 150.632 172.207 150.738C171.702 150.835 171.279 150.986 170.937 151.189C170.596 151.393 170.335 151.649 170.156 151.958C169.977 152.26 169.888 152.614 169.888 153.021C169.888 153.436 169.981 153.814 170.168 154.156C170.356 154.498 170.636 154.77 171.011 154.974C171.393 155.169 171.861 155.267 172.414 155.267C173.106 155.267 173.717 155.12 174.246 154.827C174.774 154.534 175.194 154.176 175.503 153.753C175.82 153.33 175.991 152.919 176.016 152.52L176.98 153.606C176.923 153.948 176.768 154.327 176.516 154.742C176.264 155.157 175.926 155.556 175.503 155.938C175.088 156.312 174.591 156.626 174.014 156.878C173.444 157.122 172.801 157.244 172.085 157.244C171.19 157.244 170.404 157.069 169.729 156.719C169.062 156.369 168.541 155.901 168.166 155.315C167.8 154.721 167.617 154.058 167.617 153.326C167.617 152.618 167.755 151.995 168.032 151.458C168.309 150.913 168.708 150.461 169.228 150.103C169.749 149.737 170.376 149.46 171.108 149.273C171.841 149.086 172.659 148.992 173.562 148.992H176.186ZM184.165 145.867V157H181.906V143.792H184.104L184.165 145.867ZM188.291 143.719L188.278 145.818C188.091 145.778 187.912 145.753 187.741 145.745C187.579 145.729 187.391 145.721 187.18 145.721C186.659 145.721 186.199 145.802 185.8 145.965C185.402 146.128 185.064 146.355 184.787 146.648C184.511 146.941 184.291 147.291 184.128 147.698C183.973 148.097 183.872 148.536 183.823 149.017L183.188 149.383C183.188 148.585 183.265 147.837 183.42 147.137C183.583 146.437 183.831 145.818 184.165 145.281C184.498 144.736 184.921 144.313 185.434 144.012C185.955 143.702 186.574 143.548 187.29 143.548C187.452 143.548 187.64 143.568 187.851 143.609C188.063 143.641 188.209 143.678 188.291 143.719ZM191.215 154.314V156.133C191.215 156.874 191.028 157.655 190.654 158.477C190.279 159.307 189.754 159.999 189.079 160.552L187.797 159.661C188.058 159.303 188.277 158.937 188.456 158.562C188.635 158.196 188.77 157.814 188.859 157.415C188.957 157.024 189.006 156.609 189.006 156.17V154.314H191.215ZM203.766 139.227V157H201.41V139.227H203.766ZM210.267 146.612V157H208.009V143.792H210.145L210.267 146.612ZM209.73 149.896L208.79 149.859C208.798 148.956 208.932 148.121 209.193 147.356C209.453 146.583 209.819 145.912 210.291 145.342C210.763 144.773 211.325 144.333 211.976 144.024C212.635 143.707 213.364 143.548 214.161 143.548C214.812 143.548 215.398 143.637 215.919 143.816C216.44 143.987 216.883 144.264 217.249 144.646C217.624 145.029 217.909 145.525 218.104 146.136C218.299 146.738 218.397 147.474 218.397 148.345V157H216.126V148.321C216.126 147.629 216.025 147.076 215.821 146.661C215.618 146.237 215.321 145.932 214.93 145.745C214.539 145.55 214.059 145.452 213.49 145.452C212.928 145.452 212.415 145.57 211.952 145.806C211.496 146.042 211.101 146.368 210.767 146.783C210.442 147.198 210.186 147.674 209.998 148.211C209.819 148.74 209.73 149.301 209.73 149.896ZM230.452 154.437V138.25H232.723V157H230.648L230.452 154.437ZM221.566 150.542V150.286C221.566 149.277 221.688 148.361 221.932 147.54C222.184 146.709 222.538 145.997 222.994 145.403C223.458 144.809 224.007 144.354 224.642 144.036C225.285 143.711 226.001 143.548 226.79 143.548C227.62 143.548 228.344 143.694 228.963 143.987C229.59 144.272 230.119 144.691 230.55 145.245C230.989 145.79 231.335 146.449 231.587 147.222C231.84 147.995 232.015 148.87 232.112 149.847V150.97C232.023 151.938 231.848 152.809 231.587 153.582C231.335 154.355 230.989 155.014 230.55 155.56C230.119 156.105 229.59 156.524 228.963 156.817C228.336 157.102 227.604 157.244 226.766 157.244C225.993 157.244 225.285 157.077 224.642 156.744C224.007 156.41 223.458 155.942 222.994 155.34C222.538 154.738 222.184 154.03 221.932 153.216C221.688 152.394 221.566 151.503 221.566 150.542ZM223.836 150.286V150.542C223.836 151.202 223.901 151.82 224.031 152.398C224.17 152.976 224.381 153.484 224.666 153.924C224.951 154.363 225.313 154.709 225.753 154.961C226.192 155.206 226.717 155.328 227.327 155.328C228.076 155.328 228.69 155.169 229.171 154.852C229.659 154.534 230.049 154.115 230.342 153.594C230.635 153.073 230.863 152.508 231.026 151.897V148.956C230.928 148.508 230.786 148.077 230.599 147.662C230.42 147.238 230.184 146.864 229.891 146.539C229.606 146.205 229.252 145.94 228.829 145.745C228.414 145.55 227.921 145.452 227.352 145.452C226.733 145.452 226.2 145.582 225.753 145.843C225.313 146.095 224.951 146.445 224.666 146.893C224.381 147.332 224.17 147.845 224.031 148.431C223.901 149.008 223.836 149.627 223.836 150.286ZM238.992 143.792V157H236.721V143.792H238.992ZM236.551 140.289C236.551 139.922 236.66 139.613 236.88 139.361C237.108 139.109 237.442 138.982 237.881 138.982C238.312 138.982 238.642 139.109 238.87 139.361C239.106 139.613 239.224 139.922 239.224 140.289C239.224 140.639 239.106 140.94 238.87 141.192C238.642 141.436 238.312 141.558 237.881 141.558C237.442 141.558 237.108 141.436 236.88 141.192C236.66 140.94 236.551 140.639 236.551 140.289ZM250.706 154.742V147.942C250.706 147.422 250.6 146.97 250.388 146.587C250.185 146.197 249.875 145.896 249.46 145.684C249.045 145.472 248.533 145.367 247.922 145.367C247.353 145.367 246.852 145.464 246.421 145.66C245.998 145.855 245.664 146.111 245.42 146.429C245.184 146.746 245.066 147.088 245.066 147.454H242.808C242.808 146.982 242.93 146.514 243.174 146.05C243.418 145.586 243.768 145.167 244.224 144.793C244.688 144.41 245.241 144.109 245.884 143.89C246.535 143.662 247.259 143.548 248.057 143.548C249.017 143.548 249.863 143.711 250.596 144.036C251.336 144.362 251.914 144.854 252.329 145.513C252.752 146.164 252.964 146.982 252.964 147.967V154.119C252.964 154.559 253 155.027 253.074 155.523C253.155 156.019 253.273 156.447 253.428 156.805V157H251.072C250.958 156.74 250.868 156.394 250.803 155.962C250.738 155.523 250.706 155.116 250.706 154.742ZM251.096 148.992L251.121 150.579H248.838C248.195 150.579 247.621 150.632 247.117 150.738C246.612 150.835 246.189 150.986 245.847 151.189C245.505 151.393 245.245 151.649 245.066 151.958C244.887 152.26 244.797 152.614 244.797 153.021C244.797 153.436 244.891 153.814 245.078 154.156C245.265 154.498 245.546 154.77 245.92 154.974C246.303 155.169 246.771 155.267 247.324 155.267C248.016 155.267 248.626 155.12 249.155 154.827C249.684 154.534 250.103 154.176 250.413 153.753C250.73 153.33 250.901 152.919 250.925 152.52L251.89 153.606C251.833 153.948 251.678 154.327 251.426 154.742C251.174 155.157 250.836 155.556 250.413 155.938C249.998 156.312 249.501 156.626 248.923 156.878C248.354 157.122 247.711 157.244 246.995 157.244C246.099 157.244 245.314 157.069 244.639 156.719C243.971 156.369 243.451 155.901 243.076 155.315C242.71 154.721 242.527 154.058 242.527 153.326C242.527 152.618 242.665 151.995 242.942 151.458C243.219 150.913 243.617 150.461 244.138 150.103C244.659 149.737 245.286 149.46 246.018 149.273C246.75 149.086 247.568 148.992 248.472 148.992H251.096Z" fill="black"/>
<path d="M46.2456 140.961C45.5357 140.961 44.8417 141.137 44.2514 141.465C43.6612 141.794 43.2011 142.26 42.9294 142.807C42.6577 143.353 42.5867 143.954 42.7252 144.534C42.8637 145.114 43.2055 145.647 43.7075 146.065C44.2095 146.483 44.8491 146.768 45.5453 146.883C46.2416 146.998 46.9633 146.939 47.6192 146.713C48.2751 146.486 48.8357 146.103 49.2301 145.612C49.6245 145.12 49.835 144.542 49.835 143.951C49.8339 143.158 49.4554 142.398 48.7825 141.838C48.1096 141.277 47.1972 140.962 46.2456 140.961ZM46.2456 145.446C45.8906 145.446 45.5437 145.358 45.2485 145.194C44.9534 145.029 44.7233 144.796 44.5875 144.523C44.4517 144.25 44.4161 143.949 44.4854 143.659C44.5546 143.369 44.7256 143.103 44.9766 142.894C45.2275 142.685 45.5473 142.542 45.8955 142.485C46.2436 142.427 46.6045 142.457 46.9324 142.57C47.2603 142.683 47.5406 142.875 47.7378 143.12C47.935 143.366 48.0403 143.655 48.0403 143.951C48.0398 144.347 47.8505 144.727 47.514 145.007C47.1776 145.287 46.7214 145.445 46.2456 145.446Z" fill="black"/>
<path d="M53.143 138.202C51.4376 136.782 49.1612 135.938 46.7529 135.834C44.3447 135.729 41.9755 136.372 40.1025 137.637C38.2295 138.902 36.9856 140.7 36.6107 142.684C36.2359 144.668 36.7567 146.698 38.0727 148.381L44.8538 157.051C45.0047 157.244 45.211 157.402 45.454 157.512C45.6971 157.622 45.9692 157.679 46.2456 157.679C46.5221 157.679 46.7942 157.622 47.0372 157.512C47.2803 157.402 47.4866 157.244 47.6375 157.051L54.4188 148.381C55.6399 146.819 56.1795 144.956 55.9473 143.103C55.715 141.25 54.7249 139.519 53.143 138.202ZM52.915 147.565L46.2457 156.092L39.5762 147.565C37.5348 144.955 37.9726 141.461 40.6173 139.259C41.3565 138.643 42.2339 138.155 43.1996 137.821C44.1653 137.488 45.2004 137.317 46.2457 137.317C47.291 137.317 48.326 137.488 49.2917 137.821C50.2574 138.155 51.1349 138.643 51.874 139.259C54.5187 141.461 54.9565 144.955 52.915 147.565Z" fill="black"/>
<g filter="url(#filter0_ddf_13_37)">
<path d="M234.961 58.4169C253.262 58.4169 268.097 49.2176 268.097 37.8696C268.097 26.5216 253.262 17.3222 234.961 17.3222C216.661 17.3222 201.825 26.5216 201.825 37.8696C201.825 49.2176 216.661 58.4169 234.961 58.4169Z" fill="#FA9E42"/>
<g filter="url(#filter1_f_13_37)">
<path d="M232.567 34.9476C243.58 31.3388 249.739 25.1981 246.325 21.2319C242.911 17.2658 231.215 16.9762 220.202 20.585C209.189 24.1939 203.03 30.3346 206.444 34.3007C209.859 38.2668 221.554 38.5564 232.567 34.9476Z" fill="#F8E36F"/>
</g>
<path d="M241.297 56.2437C241.537 56.2474 243.982 61.4839 243.982 63.5187C243.982 65.5535 242.779 67.2033 241.297 67.2033C239.814 67.2033 238.611 65.5537 238.611 63.5189C238.611 61.4841 241.056 56.2402 241.297 56.2437Z" fill="#42A0F0"/>
<path d="M240 64.1413C240.392 64.2153 240.909 63.8743 241.154 63.3797C241.399 62.8851 241.279 62.4242 240.887 62.3502C240.495 62.2762 239.978 62.6172 239.733 63.1118C239.488 63.6064 239.607 64.0673 240 64.1413Z" fill="white"/>
<path d="M259.929 56.2437C260.17 56.2474 262.615 61.4839 262.615 63.5187C262.615 65.5535 261.412 67.2033 259.929 67.2033C258.447 67.2033 257.244 65.5537 257.244 63.5189C257.244 61.4841 259.689 56.2402 259.929 56.2437Z" fill="#42A0F0"/>
<path d="M258.632 64.1413C259.025 64.2153 259.541 63.8743 259.787 63.3797C260.032 62.8851 259.912 62.4242 259.52 62.3502C259.128 62.2762 258.611 62.6172 258.366 63.1118C258.121 63.6064 258.24 64.0673 258.632 64.1413Z" fill="white"/>
<path d="M279.922 56.2437C280.163 56.2474 282.607 61.4839 282.607 63.5187C282.607 65.5535 281.405 67.2033 279.922 67.2033C278.439 67.2033 277.237 65.5537 277.237 63.5189C277.237 61.4841 279.681 56.2402 279.922 56.2437Z" fill="#42A0F0"/>
<path d="M278.625 64.1413C279.017 64.2153 279.534 63.8743 279.779 63.3797C280.024 62.8851 279.905 62.4242 279.512 62.3502C279.12 62.2762 278.603 62.6172 278.358 63.1118C278.113 63.6064 278.232 64.0673 278.625 64.1413Z" fill="white"/>
<path d="M298.386 55.6212C298.627 55.6249 301.071 60.8614 301.071 62.8962C301.071 64.931 299.869 66.5808 298.386 66.5808C296.903 66.5808 295.701 64.9312 295.701 62.8964C295.701 60.8616 298.145 55.6177 298.386 55.6212Z" fill="#42A0F0"/>
<path d="M297.089 63.5188C297.481 63.5928 297.998 63.2518 298.243 62.7572C298.488 62.2626 298.369 61.8017 297.977 61.7277C297.584 61.6537 297.068 61.9947 296.822 62.4893C296.577 62.9839 296.697 63.4448 297.089 63.5188Z" fill="white"/>
<path d="M269.338 70.1498C269.578 70.1535 272.023 75.39 272.023 77.4248C272.023 79.4596 270.82 81.1094 269.338 81.1094C267.855 81.1094 266.652 79.4598 266.652 77.425C266.652 75.3902 269.097 70.1463 269.338 70.1498Z" fill="#42A0F0"/>
<path d="M268.041 78.0474C268.433 78.1214 268.95 77.7804 269.195 77.2858C269.44 76.7912 269.32 76.3303 268.928 76.2563C268.536 76.1823 268.019 76.5233 267.774 77.0179C267.529 77.5125 267.648 77.9734 268.041 78.0474Z" fill="white"/>
<path d="M289.329 70.1498C289.57 70.1535 292.014 75.39 292.014 77.4248C292.014 79.4596 290.812 81.1094 289.329 81.1094C287.846 81.1094 286.644 79.4598 286.644 77.425C286.644 75.3902 289.088 70.1463 289.329 70.1498Z" fill="#42A0F0"/>
<path d="M288.032 78.0474C288.424 78.1214 288.941 77.7804 289.186 77.2858C289.431 76.7912 289.312 76.3303 288.92 76.2563C288.527 76.1823 288.011 76.5233 287.765 77.0179C287.52 77.5125 287.64 77.9734 288.032 78.0474Z" fill="white"/>
<path d="M310.496 70.1498C310.737 70.1535 313.182 75.39 313.182 77.4248C313.182 79.4596 311.979 81.1094 310.496 81.1094C309.014 81.1094 307.811 79.4598 307.811 77.425C307.811 75.3902 310.256 70.1463 310.496 70.1498Z" fill="#42A0F0"/>
<path d="M309.199 78.0474C309.592 78.1214 310.108 77.7804 310.354 77.2858C310.599 76.7912 310.479 76.3303 310.087 76.2563C309.695 76.1823 309.178 76.5233 308.933 77.0179C308.688 77.5125 308.807 77.9734 309.199 78.0474Z" fill="white"/>
<path d="M249.347 70.7723C249.588 70.776 252.032 76.0125 252.032 78.0473C252.032 80.0821 250.83 81.7319 249.347 81.7319C247.864 81.7319 246.662 80.0823 246.662 78.0475C246.662 76.0127 249.106 70.7688 249.347 70.7723Z" fill="#42A0F0"/>
<path d="M248.05 78.6699C248.442 78.7439 248.959 78.4029 249.204 77.9083C249.449 77.4137 249.33 76.9528 248.938 76.8788C248.545 76.8048 248.029 77.1458 247.784 77.6404C247.538 78.135 247.658 78.5959 248.05 78.6699Z" fill="white"/>
<path d="M230.531 70.1498C230.772 70.1535 233.216 75.39 233.216 77.4248C233.216 79.4596 232.014 81.1094 230.531 81.1094C229.048 81.1094 227.846 79.4598 227.846 77.425C227.846 75.3902 230.29 70.1463 230.531 70.1498Z" fill="#42A0F0"/>
<path d="M229.234 78.0474C229.626 78.1214 230.143 77.7804 230.388 77.2858C230.633 76.7912 230.514 76.3303 230.121 76.2563C229.729 76.1823 229.212 76.5233 228.967 77.0179C228.722 77.5125 228.841 77.9734 229.234 78.0474Z" fill="white"/>
<path d="M241.297 81.1498C241.537 81.1535 243.982 86.39 243.982 88.4248C243.982 90.4596 242.779 92.1094 241.297 92.1094C239.814 92.1094 238.611 90.4598 238.611 88.425C238.611 86.3902 241.056 81.1463 241.297 81.1498Z" fill="#42A0F0"/>
<path d="M240 89.0474C240.392 89.1214 240.909 88.7805 241.154 88.2859C241.399 87.7913 241.279 87.3303 240.887 87.2563C240.495 87.1823 239.978 87.5233 239.733 88.0179C239.488 88.5125 239.607 88.9734 240 89.0474Z" fill="white"/>
<path d="M259.929 81.1498C260.17 81.1535 262.615 86.39 262.615 88.4248C262.615 90.4596 261.412 92.1094 259.929 92.1094C258.447 92.1094 257.244 90.4598 257.244 88.425C257.244 86.3902 259.689 81.1463 259.929 81.1498Z" fill="#42A0F0"/>
<path d="M258.632 89.0474C259.025 89.1214 259.541 88.7805 259.787 88.2859C260.032 87.7913 259.912 87.3303 259.52 87.2563C259.128 87.1823 258.611 87.5233 258.366 88.0179C258.121 88.5125 258.24 88.9734 258.632 89.0474Z" fill="white"/>
<path d="M279.922 81.1498C280.163 81.1535 282.607 86.39 282.607 88.4248C282.607 90.4596 281.405 92.1094 279.922 92.1094C278.439 92.1094 277.237 90.4598 277.237 88.425C277.237 86.3902 279.681 81.1463 279.922 81.1498Z" fill="#42A0F0"/>
<path d="M278.625 89.0474C279.017 89.1214 279.534 88.7805 279.779 88.2859C280.024 87.7913 279.905 87.3303 279.512 87.2563C279.12 87.1823 278.603 87.5233 278.358 88.0179C278.113 88.5125 278.232 88.9734 278.625 89.0474Z" fill="white"/>
<path d="M298.386 81.1498C298.627 81.1535 301.071 86.39 301.071 88.4248C301.071 90.4596 299.869 92.1094 298.386 92.1094C296.903 92.1094 295.701 90.4598 295.701 88.425C295.701 86.3902 298.145 81.1463 298.386 81.1498Z" fill="#42A0F0"/>
<path d="M297.089 89.0474C297.481 89.1214 297.998 88.7805 298.243 88.2859C298.488 87.7913 298.369 87.3303 297.977 87.2563C297.584 87.1823 297.068 87.5233 296.822 88.0179C296.577 88.5125 296.697 88.9734 297.089 89.0474Z" fill="white"/>
<g filter="url(#filter2_d_13_37)">
<path d="M297.263 72.3593H232.864C226.617 72.3564 220.613 70.8626 216.111 68.1907C211.609 65.5188 208.956 61.8759 208.709 58.0246C208.461 54.1734 210.638 50.4124 214.784 47.529C218.929 44.6455 224.722 42.8633 230.949 42.5553C231.837 38.6866 234.669 35.087 239.045 32.2629C243.422 29.4389 249.124 27.5325 255.349 26.8119C261.573 26.0914 268.007 26.593 273.746 28.2462C279.484 29.8993 284.238 32.6209 287.339 36.0279C293.025 34.8133 299.17 34.6714 304.988 35.6202C310.806 36.569 316.034 38.5655 320.006 41.355C323.977 44.1446 326.512 47.6008 327.286 51.2827C328.061 54.9647 327.04 58.7056 324.355 62.0282C322.779 65.0303 319.702 67.6472 315.565 69.5033C311.429 71.3594 306.445 72.3593 301.33 72.3593H297.263Z" fill="url(#paint1_linear_13_37)"/>
<path d="M301.33 72.1516C303.927 72.1516 306.48 71.8958 308.919 71.3912C311.278 70.9033 313.492 70.1913 315.5 69.2749C317.485 68.3691 319.226 67.284 320.673 66.0499C322.137 64.8003 323.268 63.4257 324.034 61.9642L324.042 61.9492L324.053 61.9352C325.071 60.68 325.855 59.3522 326.383 57.9887C326.927 56.5856 327.202 55.1358 327.202 53.6798C327.202 52.4263 326.997 51.1738 326.594 49.9568C326.201 48.7709 325.614 47.6045 324.849 46.4898C324.099 45.3953 323.17 44.3396 322.089 43.3521C321.018 42.374 319.788 41.4542 318.433 40.6182C317.078 39.7823 315.587 39.0233 314.002 38.3625C312.401 37.6954 310.69 37.1224 308.916 36.6594C307.109 36.188 305.219 35.8259 303.296 35.5832C301.324 35.3342 299.294 35.2079 297.262 35.2079C293.898 35.2079 290.596 35.5495 287.448 36.2231L287.182 36.2799L287.045 36.1287C284.483 33.3181 280.756 30.9577 276.267 29.3028C273.998 28.4658 271.559 27.8191 269.019 27.3804C266.399 26.9279 263.678 26.6985 260.93 26.6985C257.235 26.6985 253.628 27.1088 250.209 27.9181C246.906 28.6998 243.876 29.8291 241.203 31.2745C238.546 32.7116 236.341 34.4073 234.649 36.3144C232.915 38.2683 231.782 40.3775 231.281 42.5832L231.244 42.7483L230.975 42.7614C227.961 42.9069 225.062 43.3964 222.357 44.2163C219.729 45.013 217.382 46.0905 215.381 47.419C211.271 50.1488 209.008 53.7055 209.008 57.4338C209.008 59.4207 209.638 61.3482 210.882 63.1625C211.48 64.0346 212.22 64.8757 213.082 65.6625C213.935 66.4419 214.915 67.1748 215.995 67.8409C217.074 68.5069 218.262 69.1116 219.525 69.6382C220.801 70.1697 222.164 70.6263 223.578 70.9951C226.518 71.7625 229.642 72.1516 232.863 72.1516H297.262H301.33ZM301.33 72.3592H297.262H232.863C219.502 72.3592 208.671 65.6768 208.671 57.4338C208.671 49.5882 218.482 43.1564 230.948 42.5544C233.01 33.4765 245.648 26.4909 260.93 26.4909C272.268 26.4909 282.15 30.3354 287.338 36.027C290.447 35.3617 293.786 35.0003 297.262 35.0003C313.983 35.0003 327.539 43.3635 327.539 53.6798C327.539 56.6801 326.392 59.5158 324.354 62.028C321.214 68.0232 312.093 72.3592 301.33 72.3592Z" fill="white" fill-opacity="0.5"/>
</g>
</g>
<defs>
<filter id="filter0_ddf_13_37" x="197.825" y="13.3222" width="133.713" height="86.7872" filterUnits="userSpaceOnUse" color-interpolation-filters="sRGB">
<feFlood flood-opacity="0" result="BackgroundImageFix"/>
<feColorMatrix in="SourceAlpha" type="matrix" values="0 0 0 0 0 0 0 0 0 0 0 0 0 0 0 0 0 0 127 0" result="hardAlpha"/>
<feOffset dy="4"/>
<feGaussianBlur stdDeviation="2"/>
<feComposite in2="hardAlpha" operator="out"/>
<feColorMatrix type="matrix" values="0 0 0 0 0 0 0 0 0 0 0 0 0 0 0 0 0 0 0.25 0"/>
<feBlend mode="normal" in2="BackgroundImageFix" result="effect1_dropShadow_13_37"/>
<feColorMatrix in="SourceAlpha" type="matrix" values="0 0 0 0 0 0 0 0 0 0 0 0 0 0 0 0 0 0 127 0" result="hardAlpha"/>
<feOffset dy="4"/>
<feGaussianBlur stdDeviation="2"/>
<feComposite in2="hardAlpha" operator="out"/>
<feColorMatrix type="matrix" values="0 0 0 0 0 0 0 0 0 0 0 0 0 0 0 0 0 0 0.25 0"/>
<feBlend mode="normal" in2="effect1_dropShadow_13_37" result="effect2_dropShadow_13_37"/>
<feBlend mode="normal" in="SourceGraphic" in2="effect2_dropShadow_13_37" result="shape"/>
<feGaussianBlur stdDeviation="2" result="effect3_foregroundBlur_13_37"/>
</filter>
<filter id="filter1_f_13_37" x="185.502" y="-1.94296" width="81.7647" height="59.4185" filterUnits="userSpaceOnUse" color-interpolation-filters="sRGB">
<feFlood flood-opacity="0" result="BackgroundImageFix"/>
<feBlend mode="normal" in="SourceGraphic" in2="BackgroundImageFix" result="shape"/>
<feGaussianBlur stdDeviation="10" result="effect1_foregroundBlur_13_37"/>
</filter>
<filter id="filter2_d_13_37" x="188.671" y="-1.50906" width="178.867" height="105.868" filterUnits="userSpaceOnUse" color-interpolation-filters="sRGB">
<feFlood flood-opacity="0" result="BackgroundImageFix"/>
<feColorMatrix in="SourceAlpha" type="matrix" values="0 0 0 0 0 0 0 0 0 0 0 0 0 0 0 0 0 0 127 0" result="hardAlpha"/>
<feOffset dx="10" dy="2"/>
<feGaussianBlur stdDeviation="15"/>
<feColorMatrix type="matrix" values="0 0 0 0 0.501961 0 0 0 0 0.501961 0 0 0 0 0.501961 0 0 0 0.302 0"/>
<feBlend mode="normal" in2="BackgroundImageFix" result="effect1_dropShadow_13_37"/>
<feBlend mode="normal" in="SourceGraphic" in2="effect1_dropShadow_13_37" result="shape"/>
</filter>
<linearGradient id="paint0_linear_13_37" x1="340" y1="0" x2="31.1603" y2="226.681" gradientUnits="userSpaceOnUse">
<stop stop-color="#37403D"/>
<stop offset="1" stop-color="white" stop-opacity="0.43"/>
</linearGradient>
<linearGradient id="paint1_linear_13_37" x1="268.114" y1="26.4915" x2="282.565" y2="83.1214" gradientUnits="userSpaceOnUse">
<stop stop-color="white" stop-opacity="0.604"/>
<stop offset="1" stop-color="white" stop-opacity="0.2"/>
</linearGradient>
</defs>
</svg>
